<svg width="32" height="32" fill="none" xmlns="http://www.w3.org/2000/svg">
<path fill-rule="evenodd" clip-rule="evenodd" d="M30.667 16.334c0-1.04-.096-2.04-.272-3H16.299v5.673h8.055c-.347 1.834-1.402 3.387-2.987 4.427v3.68h4.837c2.83-2.553 4.463-6.313 4.463-10.78z" fill="#4285F4"></path>
<path fill-rule="evenodd" clip-rule="evenodd" d="M16.3 30.667c4.04 0 7.428-1.313 9.904-3.553l-4.837-3.68c-1.34.88-3.054 1.4-5.068 1.4-3.897 0-7.197-2.58-8.374-6.047h-5v3.8c2.463 4.794 7.524 8.08 13.374 8.08z" fill="#34A853"></path>
<path fill-rule="evenodd" clip-rule="evenodd" d="M7.925 18.787c-.299-.88-.47-1.82-.47-2.786 0-.967.171-1.907.47-2.787v-3.8h-5a14.423 14.423 0 0 0 0 13.173l5-3.8z" fill="#FBBC05"></path>
<path fill-rule="evenodd" clip-rule="evenodd" d="M16.3 7.167c2.197 0 4.17.74 5.72 2.194l4.293-4.207c-2.592-2.367-5.98-3.82-10.014-3.82-5.85 0-10.911 3.287-13.374 8.08l5 3.8c1.177-3.467 4.477-6.047 8.374-6.047z" fill="#EA4335"></path>
</svg>