<svg width="33" height="32" fill="none" xmlns="http://www.w3.org/2000/svg">
<g clip-path="url(#clip0_1602_259337)">
<path d="M27.7563 5.43398C25.7168 4.46198 23.5296 3.74586 21.2429 3.3357C21.2012 3.32779 21.1596 3.34757 21.1382 3.38714C20.8569 3.90675 20.5453 4.58463 20.3271 5.11744C17.8675 4.73499 15.4206 4.73499 13.0114 5.11744C12.7932 4.57279 12.4703 3.90675 12.1878 3.38714C12.1663 3.34889 12.1247 3.32911 12.0831 3.3357C9.79754 3.74455 7.61041 4.46067 5.56957 5.43398C5.5519 5.44189 5.53676 5.45509 5.52671 5.47222C1.37818 11.9095 0.241725 18.1885 0.799232 24.3897C0.801755 24.42 0.818152 24.449 0.840856 24.4675C3.57794 26.5552 6.22927 27.8226 8.83136 28.6627C8.87301 28.6759 8.91713 28.6601 8.94363 28.6245C9.55916 27.7514 10.1078 26.8309 10.5783 25.8628C10.6061 25.8061 10.5796 25.7388 10.5228 25.7164C9.6525 25.3735 8.82379 24.9555 8.02663 24.4807C7.96358 24.4424 7.95853 24.3488 8.01654 24.3039C8.18429 24.1734 8.35209 24.0375 8.51227 23.9004C8.54125 23.8753 8.58163 23.87 8.6157 23.8859C13.8527 26.3693 19.5224 26.3693 24.6976 23.8859C24.7317 23.8687 24.7721 23.874 24.8023 23.8991C24.9625 24.0362 25.1303 24.1734 25.2993 24.3039C25.3573 24.3488 25.3535 24.4424 25.2905 24.4807C24.4933 24.9647 23.6646 25.3735 22.793 25.7151C22.7363 25.7375 22.711 25.8061 22.7388 25.8628C23.2193 26.8295 23.768 27.7501 24.3722 28.6231C24.3974 28.6601 24.4428 28.6759 24.4845 28.6627C27.0992 27.8226 29.7505 26.5552 32.4876 24.4675C32.5115 24.449 32.5267 24.4213 32.5292 24.391C33.1964 17.2218 31.4116 10.9942 27.7979 5.47353C27.7891 5.45509 27.774 5.44189 27.7563 5.43398ZM11.3604 20.6138C9.78366 20.6138 8.4845 19.1104 8.4845 17.264C8.4845 15.4176 9.75846 13.9141 11.3604 13.9141C12.9748 13.9141 14.2614 15.4308 14.2362 17.264C14.2362 19.1104 12.9622 20.6138 11.3604 20.6138ZM21.9933 20.6138C20.4167 20.6138 19.1175 19.1104 19.1175 17.264C19.1175 15.4176 20.3914 13.9141 21.9933 13.9141C23.6078 13.9141 24.8944 15.4308 24.8692 17.264C24.8692 19.1104 23.6078 20.6138 21.9933 20.6138Z" fill="#5865F2"></path>
</g>
<defs><clipPath id="clip0_1602_259337"><rect width="32" height="32" fill="white" transform="translate(0.666992)"></rect></clipPath></defs>
</svg>